<?xml version="1.0" encoding="UTF-8" standalone="no"?>
<svg
   version="1.0"
   width="3578"
   height="1150"
   viewBox="0 0 3578 1150"
   preserveAspectRatio="xMidYMid"
   id="svg54"
   sodipodi:docname="vora.svg"
   inkscape:version="1.2 (dc2aedaf03, 2022-05-15)"
   xmlns:inkscape="http://www.inkscape.org/namespaces/inkscape"
   xmlns:sodipodi="http://sodipodi.sourceforge.net/DTD/sodipodi-0.dtd"
   xmlns="http://www.w3.org/2000/svg"
   xmlns:svg="http://www.w3.org/2000/svg">
  <defs
     id="defs58" />
  <sodipodi:namedview
     id="namedview56"
     pagecolor="#ffffff"
     bordercolor="#000000"
     borderopacity="0.25"
     inkscape:showpageshadow="2"
     inkscape:pageopacity="0.0"
     inkscape:pagecheckerboard="0"
     inkscape:deskcolor="#d1d1d1"
     showgrid="false"
     inkscape:zoom="0.19256568"
     inkscape:cx="1789"
     inkscape:cy="576.42671"
     inkscape:window-width="1366"
     inkscape:window-height="705"
     inkscape:window-x="-8"
     inkscape:window-y="-8"
     inkscape:window-maximized="1"
     inkscape:current-layer="svg54" />
  <g
     id="g1052">
    <g
       aria-label="V   RA"
       id="text363"
       style="font-weight:800;font-size:999.37px;font-family:'Open Sans';-inkscape-font-specification:'Open Sans Ultra-Bold';fill:#0c2f52;fill-rule:evenodd;stroke-width:0;stroke-linecap:square"
       transform="translate(1.843938,38.597327)">
      <path
         d="M 537.44203,812.99178 192.65938,215.36852 H 67.738131 L 483.47605,934.91492 H 591.40801 L 1006.1466,215.36852 H 882.22468 Z"
         style="font-weight:normal;font-family:Orbitron;-inkscape-font-specification:Orbitron"
         id="path978" />
      <path
         d="m 2679.0949,346.28599 c 0,-70.95527 -57.9634,-129.9181 -129.9181,-129.9181 h -589.6283 v 718.54703 h 107.932 V 676.07809 c 6.9956,0.99937 13.9912,1.99874 21.9861,1.99874 h 245.845 l 215.864,256.83809 h 127.9193 V 919.92437 L 2476.2228,678.07683 h 72.954 c 71.9547,0 129.9181,-58.96283 129.9181,-129.9181 z m -589.6283,223.85888 c -11.9924,0 -21.9861,-9.9937 -21.9861,-21.98614 V 346.28599 c 0,-11.99244 9.9937,-21.98614 21.9861,-21.98614 h 459.7102 c 11.9925,0 21.9862,9.9937 21.9862,21.98614 v 201.87274 c 0,11.99244 -9.9937,21.98614 -21.9862,21.98614 z"
         style="font-weight:normal;font-family:Orbitron;-inkscape-font-specification:Orbitron"
         id="path980" />
      <path
         d="m 2916.9457,215.36852 c -71.9546,0 -129.9181,57.96346 -129.9181,129.9181 v 589.6283 h 107.932 V 683.07368 h 503.6824 v 251.84124 h 107.932 v -589.6283 c 0,-71.95464 -57.9635,-129.9181 -129.9181,-129.9181 z m -21.9861,359.7732 v -229.8551 c 0,-11.99244 9.9937,-21.98614 21.9861,-21.98614 h 459.7102 c 11.9924,0 21.9861,9.9937 21.9861,21.98614 v 229.8551 z"
         style="font-weight:normal;font-family:Orbitron;-inkscape-font-specification:Orbitron"
         id="path982" />
    </g>
    <g
       id="g309"
       transform="matrix(0.92172581,0,0,0.92172581,181.9031,51.864495)">
      <path
         id="path475"
         style="fill:#ff0101;fill-opacity:1;fill-rule:evenodd;stroke-width:0;stroke-linecap:square"
         d="m 1380.6391,293.49138 a 369.24046,369.24046 0 0 0 -369.2375,369.24113 369.24046,369.24046 0 0 0 369.2375,369.23729 369.24046,369.24046 0 0 0 369.2411,-369.23729 369.24046,369.24046 0 0 0 -369.2411,-369.24113 z m 3.5872,185.28005 a 194.71552,194.71552 0 0 1 194.715,194.71504 194.71552,194.71552 0 0 1 -194.715,194.71503 194.71552,194.71552 0 0 1 -194.7152,-194.71503 194.71552,194.71552 0 0 1 194.7152,-194.71504 z" />
      <path
         id="circle1263"
         style="display:inline;fill:#c60000;fill-opacity:1;fill-rule:evenodd;stroke-width:0;stroke-linecap:square"
         d="m 1384.2263,399.81118 a 273.67521,273.67521 0 0 0 -273.6753,273.67529 273.67521,273.67521 0 0 0 273.6753,273.6753 273.67521,273.67521 0 0 0 273.6753,-273.6753 273.67521,273.67521 0 0 0 -273.6753,-273.67529 z m 0,78.96025 a 194.71552,194.71552 0 0 1 33.1539,2.90102 194.71552,194.71552 0 0 1 1.2618,0.2173 194.71552,194.71552 0 0 1 31.9721,8.56581 194.71552,194.71552 0 0 1 0.5185,0.20205 194.71552,194.71552 0 0 1 29.845,13.91802 194.71552,194.71552 0 0 1 1.0636,0.6023 194.71552,194.71552 0 0 1 27.0201,18.91952 194.71552,194.71552 0 0 1 0.7054,0.60993 194.71552,194.71552 0 0 1 23.2462,23.24627 194.71552,194.71552 0 0 1 0.5947,0.68617 194.71552,194.71552 0 0 1 18.9348,27.04693 194.71552,194.71552 0 0 1 0.5908,1.03689 194.71552,194.71552 0 0 1 13.9105,29.8336 194.71552,194.71552 0 0 1 0.2172,0.56038 194.71552,194.71552 0 0 1 8.5507,31.91499 194.71552,194.71552 0 0 1 0.2324,1.33806 194.71552,194.71552 0 0 1 2.8973,33.1158 194.71552,194.71552 0 0 1 -2.722,31.11065 194.71552,194.71552 0 0 1 -2.108,9.68275 194.71552,194.71552 0 0 1 -5.5733,20.80271 194.71552,194.71552 0 0 1 -3.9647,10.63579 194.71552,194.71552 0 0 1 -8.764,18.78989 194.71552,194.71552 0 0 1 -5.2455,9.61034 194.71552,194.71552 0 0 1 -13.6321,19.46082 194.71552,194.71552 0 0 1 -4.5173,6.03839 194.71552,194.71552 0 0 1 -22.0569,22.05687 194.71552,194.71552 0 0 1 -6.0383,4.51735 194.71552,194.71552 0 0 1 -19.4608,13.63212 194.71552,194.71552 0 0 1 -9.6105,5.24546 194.71552,194.71552 0 0 1 -18.7898,8.76404 194.71552,194.71552 0 0 1 -10.6357,3.9646 194.71552,194.71552 0 0 1 -20.8029,5.57331 194.71552,194.71552 0 0 1 -9.6827,2.1081 194.71552,194.71552 0 0 1 -31.1105,2.72184 194.71552,194.71552 0 0 1 -31.1108,-2.72184 194.71552,194.71552 0 0 1 -9.675,-2.10428 194.71552,194.71552 0 0 1 -20.8256,-5.57713 194.71552,194.71552 0 0 1 -10.6053,-3.95697 194.71552,194.71552 0 0 1 -18.8204,-8.7793 194.71552,194.71552 0 0 1 -9.5913,-5.23783 194.71552,194.71552 0 0 1 -19.4646,-13.63212 194.71552,194.71552 0 0 1 -6.0385,-4.51735 194.71552,194.71552 0 0 1 -22.0721,-22.07212 194.71552,194.71552 0 0 1 -4.4487,-5.94307 194.71552,194.71552 0 0 1 -13.7007,-19.56757 194.71552,194.71552 0 0 1 -5.2074,-9.5341 194.71552,194.71552 0 0 1 -8.7983,-18.86615 194.71552,194.71552 0 0 1 -3.9532,-10.60148 194.71552,194.71552 0 0 1 -5.5734,-20.81032 194.71552,194.71552 0 0 1 -2.1079,-9.68275 194.71552,194.71552 0 0 1 -2.722,-31.11065 194.71552,194.71552 0 0 1 2.722,-31.11064 194.71552,194.71552 0 0 1 2.1042,-9.67514 194.71552,194.71552 0 0 1 5.581,-20.83319 194.71552,194.71552 0 0 1 3.9416,-10.57099 194.71552,194.71552 0 0 1 8.8136,-18.89664 194.71552,194.71552 0 0 1 5.1959,-9.51883 194.71552,194.71552 0 0 1 13.7046,-19.56757 194.71552,194.71552 0 0 1 4.4487,-5.94308 194.71552,194.71552 0 0 1 22.0874,-22.08738 194.71552,194.71552 0 0 1 5.943,-4.44872 194.71552,194.71552 0 0 1 19.5676,-13.70455 194.71552,194.71552 0 0 1 9.5189,-5.19591 194.71552,194.71552 0 0 1 18.8966,-8.8136 194.71552,194.71552 0 0 1 10.5709,-3.94172 194.71552,194.71552 0 0 1 20.8714,-5.59238 194.71552,194.71552 0 0 1 9.6142,-2.08903 194.71552,194.71552 0 0 1 31.1336,-2.72567 z" />
      <path
         id="circle1054"
         style="fill:#f00f0f;fill-rule:evenodd;stroke-width:0;stroke-linecap:square"
         d="m 1446.6786,673.48541 a 62.453411,62.453411 0 0 1 -62.4534,62.45341 62.453411,62.453411 0 0 1 -62.4534,-62.45341 62.453411,62.453411 0 0 1 62.4534,-62.45341 62.453411,62.453411 0 0 1 62.4534,62.45341 z" />
      <path
         id="circle1056"
         style="fill:none;fill-rule:evenodd;stroke:#ff0000;stroke-width:78.072;stroke-linecap:round"
         d="m 936.72253,423.21635 a 491.1257,491.1257 0 0 1 424.29987,-280.6352 491.1257,491.1257 0 0 1 445.3479,245.8695" />
    </g>
  </g>
</svg>
